<?xml version="1.0" encoding="UTF-8"?>
<svg width="19px" height="17px" viewBox="0 0 19 17" version="1.1" xmlns="http://www.w3.org/2000/svg" xmlns:xlink="http://www.w3.org/1999/xlink">
    <!-- Generator: Sketch 63.1 (92452) - https://sketch.com -->
    <title>Group 8</title>
    <desc>Created with Sketch.</desc>
    <g id="Desktop---conoce-ofertas-laborales" stroke="none" stroke-width="1" fill="none" fill-rule="evenodd">
        <g id="Desempleo-Bcol---ofertas-laborales-3" transform="translate(-303.000000, -610.000000)">
            <g id="Group-29" transform="translate(276.000000, 588.000000)">
                <g id="Group-8" transform="translate(27.000000, 22.000000)">
                    <path d="M15.0882353,9.42545294 C14.454902,9.42545294 13.9705882,8.94113922 13.9705882,8.34506078 C13.9705882,7.74898235 14.454902,7.26466863 15.0882353,7.26466863 C15.7215686,7.26466863 16.2058824,7.74898235 16.2058824,8.34506078 C16.2058824,8.94113922 15.7215686,9.42545294 15.0882353,9.42545294 M7.97251176,12.3313725 C8.98957059,12.3313725 9.85164902,13.0205882 10.1198843,13.9333333 L10.1198843,13.9333333 L18.4411392,13.9333333 C18.7391784,13.9333333 18.9999627,14.1941176 18.9999627,14.4921569 C18.9999627,14.7901961 18.7391784,15.0509804 18.4411392,15.0509804 L18.4411392,15.0509804 L10.1396294,15.0509804 C9.89747255,16.0006078 9.01713922,16.727451 7.97251176,16.727451 C6.92788431,16.727451 6.04755098,16.0006078 5.80539412,15.0509804 L5.80539412,15.0509804 L0.558786275,15.0509804 C0.260747059,15.0509804 -3.7254902e-05,14.7901961 -3.7254902e-05,14.4921569 C-3.7254902e-05,14.1941176 0.260747059,13.9333333 0.558786275,13.9333333 L0.558786275,13.9333333 L5.82513922,13.9333333 C6.09337451,13.0205882 6.95545294,12.3313725 7.97251176,12.3313725 Z M7.97251176,13.4490196 C7.33917843,13.4490196 6.85486471,13.9333333 6.85486471,14.5294118 C6.85486471,15.1254902 7.33917843,15.6098039 7.97251176,15.6098039 C8.6058451,15.6098039 9.09015882,15.1254902 9.09015882,14.5294118 C9.09015882,13.9333333 8.5685902,13.4490196 7.97251176,13.4490196 Z M15.0882353,6.14702157 C16.1052941,6.14702157 16.9677451,6.83623725 17.2359804,7.74898235 L17.2359804,7.74898235 L18.4411765,7.74898235 C18.7392157,7.74898235 19,8.00976667 19,8.30780588 C19,8.6058451 18.7392157,8.86662941 18.4411765,8.86662941 L18.4411765,8.86662941 L17.2583333,8.86662941 C17.0206471,9.83711961 16.1369608,10.5431 15.0882353,10.5431 C14.0436078,10.5431 13.162902,9.81625686 12.9211176,8.86662941 L12.9211176,8.86662941 L0.558823529,8.86662941 C0.260784314,8.86662941 -4.87619927e-16,8.6058451 -4.87619927e-16,8.30780588 C-4.87619927e-16,8.00976667 0.260784314,7.74898235 0.558823529,7.74898235 L0.558823529,7.74898235 L12.9375098,7.74898235 C13.2012745,6.81723725 14.0663333,6.14702157 15.0882353,6.14702157 Z M5.02941176,0 C6.03268627,0 6.88656863,0.670215686 7.16709804,1.56470588 L7.16709804,1.56470588 L18.4411765,1.56470588 C18.7392157,1.56470588 19,1.8254902 19,2.12352941 C19,2.42156863 18.7392157,2.68235294 18.4411765,2.68235294 L18.4411765,2.68235294 L7.20658824,2.68235294 C6.97821569,3.65023529 6.08745098,4.39607843 5.02941176,4.39607843 C3.97137255,4.39607843 3.08060784,3.65023529 2.85223529,2.68235294 L2.85223529,2.68235294 L0.558823529,2.68235294 C0.260784314,2.68235294 -4.87619927e-16,2.42156863 -4.87619927e-16,2.12352941 C-4.87619927e-16,1.8254902 0.260784314,1.56470588 0.558823529,1.56470588 L0.558823529,1.56470588 L2.88837255,1.56470588 C3.16443137,0.651960784 4.02092157,0 5.02941176,0 Z M5.02941176,1.08039216 C4.39607843,1.08039216 3.91176471,1.56470588 3.91176471,2.16078431 C3.91176471,2.75686275 4.39607843,3.24117647 5.02941176,3.24117647 C5.6627451,3.24117647 6.14705882,2.75686275 6.14705882,2.16078431 C6.14705882,1.56470588 5.6627451,1.08039216 5.02941176,1.08039216 Z" id="Fill-3" fill="#696969"></path>
                    <g id="Group-7" transform="translate(0.000000, 12.256863)"></g>
                </g>
            </g>
        </g>
    </g>
</svg>